<svg data-v-423bf9ae="" xmlns="http://www.w3.org/2000/svg" viewBox="0 0 50.829453161523816 60" class="font"><!----><!----><!----><g data-v-423bf9ae="" id="b8333c98-4826-4482-bd5a-c35563a21582" fill="#7f00ff" transform="matrix(5.591798933804512,0,0,5.591798933804512,-6.54240550260937,-16.663560452555387)"><path d="M1.24 13.71L1.17 13.71L2.42 8.28L2.42 8.28Q2.88 6.29 3.81 5.09L3.81 5.09L3.81 5.09Q5.46 2.98 7.49 2.98L7.49 2.98L7.49 2.98Q9.19 2.98 9.88 4.24L9.88 4.24L9.88 4.24Q10.26 4.92 10.26 5.71L10.26 5.71L10.26 5.71Q10.26 6.13 10.16 6.57L10.16 6.57L10.16 6.57Q9.88 7.75 8.83 8.76L8.83 8.76L8.83 8.76Q7.51 10.02 5.52 10.02L5.52 10.02L4.20 10.02L4.22 9.95L4.98 8.86L5.79 8.86L5.79 8.86Q7.08 8.86 7.77 8.23L7.77 8.23L7.77 8.23Q8.57 7.51 8.79 6.57L8.79 6.57L8.79 6.57Q8.88 6.19 8.88 5.86L8.88 5.86L8.88 5.86Q8.88 5.22 8.55 4.78L8.55 4.78L8.55 4.78Q8.08 4.14 7.22 4.14L7.22 4.14L7.22 4.14Q5.96 4.14 4.87 5.62L4.87 5.62L4.87 5.62Q4.19 6.54 3.79 8.28L3.79 8.28L2.68 13.10L1.24 13.71Z"></path></g><!----><!----></svg>